<svg width="41" height="13" viewBox="0 0 41 13" fill="none" xmlns="http://www.w3.org/2000/svg">
<path d="M5.61506 12.1591C4.69839 12.1591 3.884 12.0019 3.17188 11.6875C2.46354 11.3693 1.90672 10.9318 1.50142 10.375C1.09612 9.81818 0.891572 9.17803 0.887784 8.45455H4.0696C4.07339 8.67803 4.14157 8.87879 4.27415 9.05682C4.41051 9.23106 4.59612 9.36742 4.83097 9.46591C5.06581 9.56439 5.33475 9.61364 5.63778 9.61364C5.92945 9.61364 6.18703 9.5625 6.41051 9.46023C6.634 9.35417 6.80824 9.20833 6.93324 9.02273C7.05824 8.83712 7.11884 8.625 7.11506 8.38636C7.11884 8.15152 7.04688 7.94318 6.89915 7.76136C6.75521 7.57955 6.55256 7.4375 6.29119 7.33523C6.02983 7.23295 5.72869 7.18182 5.38778 7.18182H4.20597V5H5.38778C5.70218 5 5.97869 4.94886 6.21733 4.84659C6.45975 4.74432 6.64725 4.60227 6.77983 4.42045C6.91619 4.23864 6.98248 4.0303 6.97869 3.79545C6.98248 3.56818 6.92756 3.36742 6.81392 3.19318C6.70028 3.01894 6.54119 2.88258 6.33665 2.78409C6.13589 2.68561 5.90294 2.63636 5.63778 2.63636C5.34991 2.63636 5.09233 2.6875 4.86506 2.78977C4.64157 2.89205 4.46544 3.03409 4.33665 3.21591C4.20786 3.39773 4.14157 3.60606 4.13778 3.84091H1.11506C1.11884 3.12879 1.31392 2.5 1.70028 1.95455C2.09044 1.40909 2.62453 0.98106 3.30256 0.670454C3.98059 0.359848 4.759 0.204545 5.63778 0.204545C6.49763 0.204545 7.2571 0.350378 7.91619 0.642045C8.57907 0.933712 9.09612 1.33523 9.46733 1.84659C9.84233 2.35417 10.0279 2.93561 10.0241 3.59091C10.0317 4.24242 9.80824 4.77651 9.35369 5.19318C8.90294 5.60985 8.33097 5.85606 7.63778 5.93182V6.02273C8.57718 6.125 9.28362 6.41288 9.7571 6.88636C10.2306 7.35606 10.4635 7.94697 10.456 8.65909C10.4598 9.34091 10.2552 9.94508 9.84233 10.4716C9.43324 10.9981 8.86316 11.411 8.1321 11.7102C7.40483 12.0095 6.56581 12.1591 5.61506 12.1591ZM11.8438 12V0.363636H20.2301V2.90909H15.0028V4.90909H19.7983V7.45455H15.0028V9.45455H20.2074V12H11.8438ZM24.9787 7.09091V12H21.8423V3.27273H24.8196V4.93182H24.9105C25.0999 4.37879 25.4332 3.94508 25.9105 3.63068C26.3916 3.31629 26.9522 3.15909 27.5923 3.15909C28.2098 3.15909 28.7457 3.30114 29.2003 3.58523C29.6586 3.86553 30.0128 4.25189 30.2628 4.74432C30.5166 5.23674 30.6416 5.79924 30.6378 6.43182V12H27.5014V7.09091C27.5052 6.65909 27.3954 6.32008 27.1719 6.07386C26.9522 5.82765 26.6454 5.70455 26.2514 5.70455C25.9938 5.70455 25.7685 5.76136 25.5753 5.875C25.3859 5.98485 25.2401 6.14394 25.1378 6.35227C25.0355 6.55682 24.9825 6.80303 24.9787 7.09091ZM35.3452 12.1136C34.724 12.1136 34.152 11.9508 33.6293 11.625C33.1103 11.2992 32.6937 10.8049 32.3793 10.142C32.0687 9.47917 31.9134 8.64394 31.9134 7.63636C31.9134 6.58333 32.0762 5.72727 32.402 5.06818C32.7315 4.40909 33.1558 3.92614 33.6747 3.61932C34.1974 3.3125 34.7467 3.15909 35.3224 3.15909C35.7543 3.15909 36.133 3.23485 36.4588 3.38636C36.7846 3.53409 37.0573 3.73295 37.277 3.98295C37.4967 4.22917 37.6634 4.5 37.777 4.79545H37.8224V0.363636H40.9588V12H37.8452V10.5682H37.777C37.6558 10.8636 37.4815 11.1288 37.2543 11.3636C37.0308 11.5947 36.758 11.7784 36.4361 11.9148C36.1179 12.0473 35.7543 12.1136 35.3452 12.1136ZM36.5043 9.70455C36.7921 9.70455 37.0384 9.62121 37.2429 9.45455C37.4512 9.28409 37.6103 9.04545 37.7202 8.73864C37.8338 8.42803 37.8906 8.06061 37.8906 7.63636C37.8906 7.20455 37.8338 6.83523 37.7202 6.52841C37.6103 6.2178 37.4512 5.98106 37.2429 5.81818C37.0384 5.65151 36.7921 5.56818 36.5043 5.56818C36.2164 5.56818 35.9702 5.65151 35.7656 5.81818C35.5649 5.98106 35.4096 6.2178 35.2997 6.52841C35.1937 6.83523 35.1406 7.20455 35.1406 7.63636C35.1406 8.06818 35.1937 8.43939 35.2997 8.75C35.4096 9.05682 35.5649 9.29356 35.7656 9.46023C35.9702 9.62311 36.2164 9.70455 36.5043 9.70455Z" fill="black"/>
</svg>
